<svg xmlns="http://www.w3.org/2000/svg" viewBox="0 0 600 500">
  <g fill="none">
    <path fill="#212B32" stroke="#080A0C" stroke-width="6" d="M587 101v154H393V101h194Z"/>
    <path fill="#B1B4B6" d="m433.6 128.03-20.33-11.62c-.4-.2-.79-.41-1.19-.41-1.09 0-1.98.92-1.98 2.04 0 .81.5 1.53 1.29 1.94l15.77 9.07-15.87 9.08a2.1 2.1 0 0 0-1.29 1.93c0 1.12.9 1.94 1.98 1.94.4 0 .9-.2 1.2-.4l20.33-11.73c.5-.3.6-.92.4-1.43-.1-.2-.2-.3-.3-.4Zm30.8 24.5c-.51-.4-1.12-.6-1.72-.5h-25.45c-.6 0-1.2.1-1.61.5-.8.71-.8 2.03-.1 2.84l.1.1c.5.4 1 .6 1.61.5h25.45c.6 0 1.2-.1 1.71-.5a2.06 2.06 0 0 0 0-2.94Z"/>
    <path fill="#FFF" stroke="#005EB8" stroke-width="2" d="M526 237a6.98 6.98 0 0 1 7 7v251H151V244a6.98 6.98 0 0 1 7-7Z"/>
    <path fill="#D8DDE0" d="M166 250h352a2 2 0 0 1 2 2v222H164V252c0-1.1.9-2 2-2Z"/>
    <path fill="#005EB8" d="M188 274h308v38H188z"/>
    <text fill="#FFF" font-family="sans-serif" font-size="16" font-weight="400">
      <tspan x="208" y="300">Service</tspan>
    </text>
    <path fill="#FFF" stroke="#005EB8" stroke-width="2" d="M189 311h306v138H189z"/>
    <path fill="#AEB7BD" d="M208 330h100v12H208Zm0 22h176v12H208Zm0 22h176v12H208Zm0 22h158v12H208v-12Zm0 22h86v12h-86v-12Z"/>
    <rect width="450" height="24" x="117" y="473" fill="#FFF" stroke="#005EB8" stroke-width="2" rx="2"/>
    <path fill="#005EB8" stroke="#005EB8" stroke-width="2" d="M315.82 481a5.91 5.91 0 0 1-5.82-6h64c0 3.31-2.6 6-5.82 6h-52.36Z"/>
    <path fill="#FFF" fill-opacity=".5" d="M126 274.5c0-1.9 1.6-3.5 3.5-3.5s3.5 1.6 3.5 3.5-1.6 3.5-3.5 3.5-3.5-1.5-3.5-3.5Zm14 0c0-1.9 1.6-3.5 3.5-3.5s3.5 1.6 3.5 3.5-1.6 3.5-3.5 3.5-3.5-1.5-3.5-3.5Zm-28 0c0-1.9 1.6-3.5 3.5-3.5s3.5 1.6 3.5 3.5-1.6 3.5-3.5 3.5-3.5-1.5-3.5-3.5Zm-14 0c0-1.9 1.6-3.5 3.5-3.5s3.5 1.6 3.5 3.5-1.6 3.5-3.5 3.5-3.5-1.5-3.5-3.5Zm-14 0c0-1.9 1.6-3.5 3.5-3.5s3.5 1.6 3.5 3.5-1.6 3.5-3.5 3.5-3.5-1.5-3.5-3.5Zm-14 0c0-1.9 1.6-3.5 3.5-3.5s3.5 1.6 3.5 3.5-1.6 3.5-3.5 3.5-3.5-1.5-3.5-3.5Zm-14 0c0-1.9 1.6-3.5 3.5-3.5s3.5 1.6 3.5 3.5-1.6 3.5-3.5 3.5-3.5-1.5-3.5-3.5Zm-14 0c0-1.9 1.6-3.5 3.5-3.5s3.5 1.6 3.5 3.5-1.6 3.5-3.5 3.5-3.5-1.5-3.5-3.5Zm-28 0c0-1.9 1.6-3.5 3.5-3.5s3.5 1.6 3.5 3.5-1.6 3.5-3.5 3.5-3.5-1.5-3.5-3.5Zm14 0c0-1.9 1.6-3.5 3.5-3.5s3.5 1.6 3.5 3.5-1.6 3.5-3.5 3.5-3.5-1.5-3.5-3.5Zm-28 0c0-1.9 1.6-3.5 3.5-3.5s3.5 1.6 3.5 3.5-1.6 3.5-3.5 3.5-3.5-1.5-3.5-3.5Zm593 0c0-1.9 1.6-3.5 3.5-3.5s3.5 1.6 3.5 3.5-1.6 3.5-3.5 3.5-3.5-1.5-3.5-3.5Zm-14 0c0-1.9 1.6-3.5 3.5-3.5s3.5 1.6 3.5 3.5-1.6 3.5-3.5 3.5-3.5-1.5-3.5-3.5Zm-14 0c0-1.9 1.6-3.5 3.5-3.5s3.5 1.6 3.5 3.5-1.6 3.5-3.5 3.5-3.5-1.5-3.5-3.5Zm-14 0c0-1.9 1.6-3.5 3.5-3.5s3.5 1.6 3.5 3.5-1.6 3.5-3.5 3.5-3.5-1.5-3.5-3.5Zm-14 0c0-1.9 1.6-3.5 3.5-3.5s3.5 1.6 3.5 3.5-1.6 3.5-3.5 3.5-3.5-1.5-3.5-3.5Zm-411 175c0-1.9 1.6-3.5 3.5-3.5s3.5 1.6 3.5 3.5-1.6 3.5-3.5 3.5-3.5-1.5-3.5-3.5Zm14 0c0-1.9 1.6-3.5 3.5-3.5s3.5 1.6 3.5 3.5-1.6 3.5-3.5 3.5-3.5-1.5-3.5-3.5Zm-28 0c0-1.9 1.6-3.5 3.5-3.5s3.5 1.6 3.5 3.5-1.6 3.5-3.5 3.5-3.5-1.5-3.5-3.5Zm-14 0c0-1.9 1.6-3.5 3.5-3.5s3.5 1.6 3.5 3.5-1.6 3.5-3.5 3.5-3.5-1.5-3.5-3.5Zm-14 0c0-1.9 1.6-3.5 3.5-3.5s3.5 1.6 3.5 3.5-1.6 3.5-3.5 3.5-3.5-1.5-3.5-3.5Zm-14 0c0-1.9 1.6-3.5 3.5-3.5s3.5 1.6 3.5 3.5-1.6 3.5-3.5 3.5-3.5-1.5-3.5-3.5Zm-14 0c0-1.9 1.6-3.5 3.5-3.5s3.5 1.6 3.5 3.5-1.6 3.5-3.5 3.5-3.5-1.5-3.5-3.5Zm-14 0c0-1.9 1.6-3.5 3.5-3.5s3.5 1.6 3.5 3.5-1.6 3.5-3.5 3.5-3.5-1.5-3.5-3.5Zm-28 0c0-1.9 1.6-3.5 3.5-3.5s3.5 1.6 3.5 3.5-1.6 3.5-3.5 3.5-3.5-1.5-3.5-3.5Zm14 0c0-1.9 1.6-3.5 3.5-3.5s3.5 1.6 3.5 3.5-1.6 3.5-3.5 3.5-3.5-1.5-3.5-3.5Zm-28 0c0-1.9 1.6-3.5 3.5-3.5s3.5 1.6 3.5 3.5-1.6 3.5-3.5 3.5-3.5-1.5-3.5-3.5Zm593 0c0-1.9 1.6-3.5 3.5-3.5s3.5 1.6 3.5 3.5-1.6 3.5-3.5 3.5-3.5-1.5-3.5-3.5Zm-14 0c0-1.9 1.6-3.5 3.5-3.5s3.5 1.6 3.5 3.5-1.6 3.5-3.5 3.5-3.5-1.5-3.5-3.5Zm-14 0c0-1.9 1.6-3.5 3.5-3.5s3.5 1.6 3.5 3.5-1.6 3.5-3.5 3.5-3.5-1.5-3.5-3.5Zm-14 0c0-1.9 1.6-3.5 3.5-3.5s3.5 1.6 3.5 3.5-1.6 3.5-3.5 3.5-3.5-1.5-3.5-3.5Zm-14 0c0-1.9 1.6-3.5 3.5-3.5s3.5 1.6 3.5 3.5-1.6 3.5-3.5 3.5-3.5-1.5-3.5-3.5ZM495.5 84c1.9 0 3.5 1.6 3.5 3.5s-1.6 3.5-3.5 3.5-3.5-1.6-3.5-3.5 1.5-3.5 3.5-3.5Zm0-14c1.9 0 3.5 1.6 3.5 3.5s-1.6 3.5-3.5 3.5-3.5-1.6-3.5-3.5 1.5-3.5 3.5-3.5Zm0-14c1.9 0 3.5 1.6 3.5 3.5s-1.6 3.5-3.5 3.5-3.5-1.6-3.5-3.5 1.5-3.5 3.5-3.5Zm0-14c1.9 0 3.5 1.6 3.5 3.5s-1.6 3.5-3.5 3.5-3.5-1.6-3.5-3.5 1.5-3.5 3.5-3.5Zm0-14c1.9 0 3.5 1.6 3.5 3.5s-1.6 3.5-3.5 3.5-3.5-1.6-3.5-3.5 1.5-3.5 3.5-3.5Zm0-14c1.9 0 3.5 1.6 3.5 3.5s-1.6 3.5-3.5 3.5-3.5-1.6-3.5-3.5 1.5-3.5 3.5-3.5Zm0-14c1.9 0 3.5 1.6 3.5 3.5S497.4 7 495.5 7 492 5.4 492 3.5s1.5-3.5 3.5-3.5Z"/>
    <path fill="#FFF" d="M44 244a20 20 0 1 1 0 40 20 20 0 0 1 0-40Zm8 18H36a2 2 0 0 0 0 4h16a2 2 0 0 0 0-4Zm-8-70a20 20 0 1 1 0 40 20 20 0 0 1 0-40Zm0 10a2 2 0 0 0-2 2v6h-6a2 2 0 0 0 0 4h6v6a2 2 0 0 0 4 0v-6h6a2 2 0 0 0 0-4h-6v-6a2 2 0 0 0-2-2Zm0 94a20 20 0 0 0-19.9 18h23.28l-7.9-7.9a2 2 0 0 1 2.82-2.82l11.32 11.3a2 2 0 0 1 0 2.84l-11.32 11.3a2 2 0 0 1-2.82 0 2 2 0 0 1 0-2.82l7.9-7.9H24.1A20 20 0 1 0 44 296Zm19.3 87.97-9.66-9.65a16.46 16.46 0 1 0-3.32 3.32l9.65 9.66a2.35 2.35 0 0 0 3.33 0 2.35 2.35 0 0 0 0-3.33Zm-34.59-19.5a11.76 11.76 0 1 1 23.52 0 11.76 11.76 0 0 1-23.52 0Z"/>
    <path fill="#F0F4F5" d="M164 46h100v12H164zm0 52h60v12h-60z"/>
    <g stroke-width="4">
      <circle cx="132" cy="50" r="18" fill="#FFF" fill-rule="evenodd" stroke="#212B32" stroke-linejoin="square"/>
      <circle cx="132" cy="50" r="22" stroke="#FFEB3B"/>
    </g>
    <circle cx="132" cy="50" r="10" fill="#212B32" fill-rule="evenodd"/>
    <circle cx="132" cy="102" r="19" stroke="#F0F4F5" stroke-width="2"/>
    <rect width="117" height="40" x="113" y="138" fill="#FFEB3B" fill-rule="evenodd" rx="4"/>
    <path fill="#212B32" fill-rule="evenodd" d="M230 171v3a4 4 0 0 1-4 4H117a4 4 0 0 1-4-4v-3h.13a4 4 0 0 0 3.87 3h109a4 4 0 0 0 3.87-3h.13Z"/>
    <path fill="#FFF" fill-opacity=".5" d="M188.5 210c1.9 0 3.5 1.6 3.5 3.5s-1.6 3.5-3.5 3.5-3.5-1.6-3.5-3.5 1.5-3.5 3.5-3.5Zm0-112c1.9 0 3.5 1.6 3.5 3.5s-1.6 3.5-3.5 3.5-3.5-1.6-3.5-3.5 1.5-3.5 3.5-3.5Zm0 126c1.9 0 3.5 1.6 3.5 3.5s-1.6 3.5-3.5 3.5-3.5-1.6-3.5-3.5 1.5-3.5 3.5-3.5Zm0-112c1.9 0 3.5 1.6 3.5 3.5s-1.6 3.5-3.5 3.5-3.5-1.6-3.5-3.5 1.5-3.5 3.5-3.5Zm0 84c1.9 0 3.5 1.6 3.5 3.5s-1.6 3.5-3.5 3.5-3.5-1.6-3.5-3.5 1.5-3.5 3.5-3.5Zm0-112c1.9 0 3.5 1.6 3.5 3.5s-1.6 3.5-3.5 3.5-3.5-1.6-3.5-3.5 1.5-3.5 3.5-3.5Zm0 98c1.9 0 3.5 1.6 3.5 3.5s-1.6 3.5-3.5 3.5-3.5-1.6-3.5-3.5 1.5-3.5 3.5-3.5Zm0-112c1.9 0 3.5 1.6 3.5 3.5s-1.6 3.5-3.5 3.5-3.5-1.6-3.5-3.5 1.5-3.5 3.5-3.5Zm0-14c1.9 0 3.5 1.6 3.5 3.5s-1.6 3.5-3.5 3.5-3.5-1.6-3.5-3.5 1.5-3.5 3.5-3.5Zm0-14c1.9 0 3.5 1.6 3.5 3.5s-1.6 3.5-3.5 3.5-3.5-1.6-3.5-3.5 1.5-3.5 3.5-3.5Zm0-14c1.9 0 3.5 1.6 3.5 3.5s-1.6 3.5-3.5 3.5-3.5-1.6-3.5-3.5 1.5-3.5 3.5-3.5Zm0 98c1.9 0 3.5 1.6 3.5 3.5s-1.6 3.5-3.5 3.5-3.5-1.6-3.5-3.5 1.5-3.5 3.5-3.5Zm0-112c1.9 0 3.5 1.6 3.5 3.5s-1.6 3.5-3.5 3.5-3.5-1.6-3.5-3.5 1.5-3.5 3.5-3.5Zm0-14c1.9 0 3.5 1.6 3.5 3.5S190.4 7 188.5 7 185 5.4 185 3.5s1.5-3.5 3.5-3.5Z"/>
  </g>
</svg>
